<mxfile host="app.diagrams.net" modified="2023-05-08T11:38:33.561Z" agent="Mozilla/5.0 (Windows NT 10.0; Win64; x64) AppleWebKit/537.36 (KHTML, like Gecko) Chrome/112.0.0.0 Safari/537.36" version="21.2.9" etag="fiQZKfy7aO62r4Oy4fKo" type="github">
  <diagram name="ページ1" id="COxT44Aj0Gj-Hgz0b3Yp">
    <mxGraphModel>
      <root>
        <mxCell id="0" />
        <mxCell id="1" parent="0" />
      </root>
    </mxGraphModel>
  </diagram>
</mxfile>
